<svg xmlns="http://www.w3.org/2000/svg" width="37" height="19" viewBox="0 0 37 19"><title>billboard-icon_1</title><polygon points="28.03 0.5 0.5 0.5 0.5 18.5 28.03 18.5 36.5 9.5 28.03 0.5" style="fill:none;stroke:#9c0006;stroke-miterlimit:10"/><path d="M4.12,5.71h1L8.11,10.8,9,12.46H9c0-.82-.13-1.72-.13-2.55V5.71h1v8.07h-1L5.88,8.69,5,7H5c0,.82.13,1.68.13,2.52v4.24h-1Z" style="fill:#9c0006"/><path d="M12.06,5.71h4.65v.86H13.08V9.1h3.06V10H13.08v2.94h3.75v.87H12.06Z" style="fill:#9c0006"/><path d="M17.7,5.71h1.06l.84,4.39.48,2.61h0c.19-.87.39-1.74.58-2.61l1.12-4.39h.92l1.13,4.39q.3,1.29.57,2.61h.06c.15-.88.31-1.75.46-2.61l.85-4.39h1l-1.67,8.07H23.89L22.67,8.92c-.14-.64-.26-1.23-.39-1.84h-.05c-.13.61-.27,1.2-.4,1.84l-1.2,4.86H19.42Z" style="fill:#9c0006"/></svg>