<svg xmlns="http://www.w3.org/2000/svg" width="26.54" height="12.22" viewBox="0 0 26.54 12.22"><title>hot-tag</title><rect x="1.44" y="1.23" width="24.02" height="10.5" rx="4" style="fill:#ffc7ce"/><path d="M4.93,3.67h.73V6.09H8.35V3.67h.73V9.45H8.35V6.72H5.66V9.45H4.93Z" style="fill:#9c0006"/><path d="M10.33,6.54c0-1.85,1-3,2.47-3s2.46,1.13,2.46,3-1,3-2.46,3S10.33,8.39,10.33,6.54Zm4.18,0c0-1.45-.68-2.34-1.71-2.34s-1.72.89-1.72,2.34.68,2.37,1.72,2.37S14.51,8,14.51,6.54Z" style="fill:#9c0006"/><path d="M17.5,4.29H15.75V3.67H20v.62H18.23V9.45H17.5Z" style="fill:#9c0006"/><path d="M21,9a.53.53,0,0,1,.52-.56A.53.53,0,0,1,22,9a.52.52,0,0,1-.52.54A.52.52,0,0,1,21,9Zm.18-4.64,0-.82h.73l0,.82-.1,3.34h-.49Z" style="fill:#9c0006"/></svg>