<svg xmlns="http://www.w3.org/2000/svg" width="26.54" height="12.22" viewBox="0 0 26.54 12.22"><title>new-tag</title><rect x="2.05" y="1.72" width="22.44" height="10.5" rx="4" style="fill:#0767ce"/><path d="M5.44,4.16H6.2L8.3,7.8,8.91,9H9c0-.59-.09-1.23-.09-1.83v-3h.69V9.93H8.8L6.7,6.28,6.08,5.1h0c0,.58.08,1.19.08,1.8v3H5.44Z" style="fill:#fff"/><path d="M11.12,4.16h3.34v.61h-2.6V6.58h2.19v.63H11.86v2.1h2.68v.62H11.12Z" style="fill:#fff"/><path d="M15.17,4.16h.75l.61,3.14c.11.62.22,1.24.34,1.87h0c.13-.63.27-1.25.41-1.87l.8-3.14h.66l.81,3.14c.14.61.28,1.24.41,1.87h0c.11-.63.22-1.26.33-1.87L21,4.16h.7l-1.2,5.77H19.6l-.88-3.48c-.1-.46-.19-.87-.28-1.32h0c-.1.45-.2.86-.29,1.32l-.86,3.48h-.87Z" style="fill:#fff"/></svg>