<svg xmlns="http://www.w3.org/2000/svg">
<symbol id="billboard-icon" viewBox="0 0 37 19"><title>billboard-icon</title><polygon points="28.19 0.39 0.66 0.39 0.66 18.39 28.19 18.39 36.66 9.39 28.19 0.39" style="fill:#9c0006"/><path d="M4.47,6.18h1l2.83,4.89.82,1.6h0c0-.78-.12-1.65-.12-2.45v-4H10v7.76H9L6.17,9l-.84-1.6h0c0,.79.11,1.61.11,2.43v4.07H4.47Z" style="fill:#fff"/><path d="M12.12,6.18H16.6V7H13.1V9.44H16v.84H13.1v2.83h3.61v.83H12.12Z" style="fill:#fff"/><path d="M17.55,6.18h1l.82,4.23c.15.83.31,1.67.45,2.51h.05c.18-.84.37-1.68.56-2.51l1.07-4.23h.89l1.09,4.23c.19.82.37,1.66.55,2.51h.05c.15-.85.3-1.69.45-2.51l.81-4.23h.94l-1.61,7.76H23.51L22.33,9.26c-.13-.61-.25-1.17-.38-1.76h0c-.13.59-.26,1.15-.39,1.76l-1.16,4.68H19.2Z" style="fill:#fff"/></symbol>
<symbol id="hot-tag" viewBox="0 0 26.54 12.22"><title>hot-tag</title><rect x="1.44" y="1.23" width="24.02" height="10.5" rx="4" style="fill:#ffc7ce"/><path d="M4.93,3.67h.73V6.09H8.35V3.67h.73V9.45H8.35V6.72H5.66V9.45H4.93Z" style="fill:#9c0006"/><path d="M10.33,6.54c0-1.85,1-3,2.47-3s2.46,1.13,2.46,3-1,3-2.46,3S10.33,8.39,10.33,6.54Zm4.18,0c0-1.45-.68-2.34-1.71-2.34s-1.72.89-1.72,2.34.68,2.37,1.72,2.37S14.51,8,14.51,6.54Z" style="fill:#9c0006"/><path d="M17.5,4.29H15.75V3.67H20v.62H18.23V9.45H17.5Z" style="fill:#9c0006"/><path d="M21,9a.53.53,0,0,1,.52-.56A.53.53,0,0,1,22,9a.52.52,0,0,1-.52.54A.52.52,0,0,1,21,9Zm.18-4.64,0-.82h.73l0,.82-.1,3.34h-.49Z" style="fill:#9c0006"/></symbol>
<symbol id="new-tag" viewBox="0 0 26.54 12.22"><title>new-tag</title><rect x="2.05" y="1.72" width="22.44" height="10.5" rx="4" style="fill:#0767ce"/><path d="M5.44,4.16H6.2L8.3,7.8,8.91,9H9c0-.59-.09-1.23-.09-1.83v-3h.69V9.93H8.8L6.7,6.28,6.08,5.1h0c0,.58.08,1.19.08,1.8v3H5.44Z" style="fill:#fff"/><path d="M11.12,4.16h3.34v.61h-2.6V6.58h2.19v.63H11.86v2.1h2.68v.62H11.12Z" style="fill:#fff"/><path d="M15.17,4.16h.75l.61,3.14c.11.62.22,1.24.34,1.87h0c.13-.63.27-1.25.41-1.87l.8-3.14h.66l.81,3.14c.14.61.28,1.24.41,1.87h0c.11-.63.22-1.26.33-1.87L21,4.16h.7l-1.2,5.77H19.6l-.88-3.48c-.1-.46-.19-.87-.28-1.32h0c-.1.45-.2.86-.29,1.32l-.86,3.48h-.87Z" style="fill:#fff"/></symbol>
</svg>