<?xml version="1.0" standalone="no"?>
<!DOCTYPE svg PUBLIC "-//W3C//DTD SVG 20010904//EN"
 "http://www.w3.org/TR/2001/REC-SVG-20010904/DTD/svg10.dtd">
<svg version="1.0" xmlns="http://www.w3.org/2000/svg"
 width="260.000000pt" height="260.000000pt" viewBox="0 0 260.000000 260.000000"
 preserveAspectRatio="xMidYMid meet">
<metadata>
Created by potrace 1.11, written by Peter Selinger 2001-2013
</metadata>
<g transform="translate(0.000000,260.000000) scale(0.100000,-0.100000)"
fill="#000000" stroke="none">
<path d="M0 1300 l0 -1300 1300 0 1300 0 0 345 0 344 -32 6 c-18 3 -178 5
-356 3 -321 -3 -322 -3 -295 16 58 41 126 120 155 181 39 85 41 180 4 261 -66
143 -251 268 -472 320 -332 77 -720 -4 -909 -190 -90 -88 -120 -154 -120 -261
0 -68 5 -89 29 -137 26 -52 91 -126 154 -175 22 -17 12 -18 -331 -18 l-355 0
62 20 c213 70 327 247 256 402 -38 84 -148 168 -268 204 -30 9 -42 17 -40 28
3 11 12 15 33 13 17 -2 98 -4 180 -5 133 -2 159 1 225 21 102 33 164 66 221
118 83 79 109 174 73 269 -26 67 -27 82 -9 89 12 4 33 -12 76 -58 110 -118
247 -168 459 -168 217 -1 345 45 461 164 37 39 72 67 78 63 16 -9 13 -42 -6
-72 -13 -19 -18 -47 -18 -93 0 -53 6 -75 30 -119 50 -92 162 -166 303 -202 86
-22 249 -26 332 -8 39 8 54 8 65 -1 13 -11 15 65 15 614 l0 626 -1300 0 -1300
0 0 -1300z"/>
<path d="M2528 1314 c-213 -72 -318 -243 -244 -399 42 -90 131 -160 245 -196
35 -10 66 -18 68 -16 2 2 2 146 1 319 l-3 315 -67 -23z"/>
</g>
</svg>
